<svg width="504" height="280" viewBox="0 0 504 280" fill="none" xmlns="http://www.w3.org/2000/svg">
  <path d="M135.25 43.3193C138.098 41.6754 141.585 41.6247 144.473 43.166L144.75 43.3193L221.353 87.5459C224.292 89.2429 226.103 92.3794 226.103 95.7734V184.227C226.103 187.514 224.403 190.56 221.625 192.29L221.353 192.454L144.75 236.681C141.902 238.325 138.415 238.375 135.527 236.834L135.25 236.681L58.6475 192.454C55.7082 190.757 53.8975 187.621 53.8975 184.227V95.7734C53.8975 92.4856 55.5967 89.44 58.375 87.71L58.6475 87.5459L135.25 43.3193Z" fill="url(#paint0_linear_0_1)" stroke="url(#paint1_linear_0_1)"/>
  <path d="M136 51.7529C138.785 50.1452 142.215 50.1452 145 51.7529L215.107 92.2295C217.892 93.8372 219.607 96.8081 219.607 100.023V180.977C219.607 184.192 217.892 187.163 215.107 188.771L145 229.247C142.215 230.855 138.785 230.855 136 229.247L65.8926 188.771C63.1081 187.163 61.3926 184.192 61.3926 180.977V100.023C61.3926 96.8081 63.1081 93.8372 65.8926 92.2295L136 51.7529Z" fill="white" stroke="url(#paint2_linear_0_1)" stroke-width="2"/>
  <mask id="mask0_0_1" style="mask-type:alpha" maskUnits="userSpaceOnUse" x="89" y="70" width="120" height="163">
    <rect x="128" y="165" width="19" height="68" fill="#D9D9D9"/>
    <rect x="159" y="149" width="19" height="73" fill="#D9D9D9"/>
    <rect x="190" y="131" width="19" height="72" fill="#D9D9D9"/>
    <path d="M136.643 70L124.848 125.813H89L136.643 70Z" fill="white"/>
    <path d="M116.161 161L127.956 105.187H163.804L116.161 161Z" fill="white"/>
  </mask>
  <g mask="url(#mask0_0_1)">
    <rect x="55" y="67" width="174" height="179" fill="url(#paint3_linear_0_1)"/>
  </g>
  <path d="M225.5 190.5L144.5 237.5L225.5 204V190.5Z" fill="white"/>
  <path d="M278.08 115.08C278.08 117.48 277.293 119.413 275.72 120.88C274.147 122.347 271.787 123.08 268.64 123.08H263V135H260.2V107.04H268.64C271.76 107.04 274.107 107.773 275.68 109.24C277.28 110.707 278.08 112.653 278.08 115.08ZM268.64 120.68C273.013 120.68 275.2 118.813 275.2 115.08C275.2 113.213 274.68 111.8 273.64 110.84C272.6 109.88 270.933 109.4 268.64 109.4H263V120.68H268.64ZM292.338 135.32C290.285 135.32 288.431 134.867 286.778 133.96C285.151 133.027 283.858 131.72 282.898 130.04C281.965 128.333 281.498 126.347 281.498 124.08C281.498 121.813 281.978 119.84 282.938 118.16C283.898 116.453 285.205 115.147 286.858 114.24C288.511 113.307 290.365 112.84 292.418 112.84C294.471 112.84 296.325 113.307 297.978 114.24C299.658 115.147 300.965 116.453 301.898 118.16C302.858 119.84 303.338 121.813 303.338 124.08C303.338 126.32 302.858 128.293 301.898 130C300.938 131.707 299.618 133.027 297.938 133.96C296.258 134.867 294.391 135.32 292.338 135.32ZM292.338 132.88C293.778 132.88 295.111 132.56 296.338 131.92C297.565 131.253 298.551 130.267 299.298 128.96C300.071 127.627 300.458 126 300.458 124.08C300.458 122.16 300.085 120.547 299.338 119.24C298.591 117.907 297.605 116.92 296.378 116.28C295.151 115.613 293.818 115.28 292.378 115.28C290.938 115.28 289.605 115.613 288.378 116.28C287.151 116.92 286.165 117.907 285.418 119.24C284.698 120.547 284.338 122.16 284.338 124.08C284.338 126 284.698 127.627 285.418 128.96C286.165 130.267 287.138 131.253 288.338 131.92C289.565 132.56 290.898 132.88 292.338 132.88ZM337.242 113.16L330.402 135H327.602L321.562 116.68L315.522 135H312.682L305.842 113.16H308.682L314.122 132.16L320.242 113.16H323.042L329.082 132.2L334.482 113.16H337.242ZM360.819 122.96C360.819 123.92 360.793 124.653 360.739 125.16H342.619C342.699 126.813 343.099 128.227 343.819 129.4C344.539 130.573 345.486 131.467 346.659 132.08C347.833 132.667 349.113 132.96 350.499 132.96C352.313 132.96 353.833 132.52 355.059 131.64C356.313 130.76 357.139 129.573 357.539 128.08H360.499C359.966 130.213 358.819 131.96 357.059 133.32C355.326 134.653 353.139 135.32 350.499 135.32C348.446 135.32 346.606 134.867 344.979 133.96C343.353 133.027 342.073 131.72 341.139 130.04C340.233 128.333 339.779 126.347 339.779 124.08C339.779 121.813 340.233 119.827 341.139 118.12C342.046 116.413 343.313 115.107 344.939 114.2C346.566 113.293 348.419 112.84 350.499 112.84C352.579 112.84 354.393 113.293 355.939 114.2C357.513 115.107 358.713 116.333 359.539 117.88C360.393 119.4 360.819 121.093 360.819 122.96ZM357.979 122.88C358.006 121.253 357.673 119.867 356.979 118.72C356.313 117.573 355.393 116.707 354.219 116.12C353.046 115.533 351.766 115.24 350.379 115.24C348.299 115.24 346.526 115.907 345.059 117.24C343.593 118.573 342.779 120.453 342.619 122.88H357.979ZM368.742 117.04C369.356 115.68 370.289 114.627 371.542 113.88C372.822 113.133 374.382 112.76 376.222 112.76V115.68H375.462C373.436 115.68 371.809 116.227 370.582 117.32C369.356 118.413 368.742 120.24 368.742 122.8V135H365.942V113.16H368.742V117.04ZM276.56 146.04V148.36H268.8V174H266V148.36H258.2V146.04H276.56ZM279.701 163.04C279.701 160.8 280.141 158.84 281.021 157.16C281.928 155.453 283.168 154.147 284.741 153.24C286.341 152.307 288.141 151.84 290.141 151.84C292.221 151.84 294.008 152.32 295.501 153.28C297.021 154.24 298.115 155.467 298.781 156.96V152.16H301.581V174H298.781V169.16C298.088 170.653 296.981 171.893 295.461 172.88C293.968 173.84 292.181 174.32 290.101 174.32C288.128 174.32 286.341 173.853 284.741 172.92C283.168 171.987 281.928 170.667 281.021 168.96C280.141 167.253 279.701 165.28 279.701 163.04ZM298.781 163.08C298.781 161.32 298.421 159.773 297.701 158.44C296.981 157.107 295.995 156.08 294.741 155.36C293.515 154.64 292.155 154.28 290.661 154.28C289.115 154.28 287.728 154.627 286.501 155.32C285.275 156.013 284.301 157.027 283.581 158.36C282.888 159.667 282.541 161.227 282.541 163.04C282.541 164.827 282.888 166.4 283.581 167.76C284.301 169.093 285.275 170.12 286.501 170.84C287.728 171.533 289.115 171.88 290.661 171.88C292.155 171.88 293.515 171.52 294.741 170.8C295.995 170.08 296.981 169.053 297.701 167.72C298.421 166.387 298.781 164.84 298.781 163.08ZM315.493 174.32C312.987 174.32 310.933 173.747 309.333 172.6C307.76 171.427 306.88 169.84 306.693 167.84H309.573C309.707 169.067 310.28 170.067 311.293 170.84C312.333 171.587 313.72 171.96 315.453 171.96C316.973 171.96 318.16 171.6 319.013 170.88C319.893 170.16 320.333 169.267 320.333 168.2C320.333 167.453 320.093 166.84 319.613 166.36C319.133 165.88 318.52 165.507 317.773 165.24C317.053 164.947 316.067 164.64 314.813 164.32C313.187 163.893 311.867 163.467 310.853 163.04C309.84 162.613 308.973 161.987 308.253 161.16C307.56 160.307 307.213 159.173 307.213 157.76C307.213 156.693 307.533 155.707 308.173 154.8C308.813 153.893 309.72 153.173 310.893 152.64C312.067 152.107 313.4 151.84 314.893 151.84C317.24 151.84 319.133 152.44 320.573 153.64C322.013 154.813 322.787 156.44 322.893 158.52H320.093C320.013 157.24 319.507 156.213 318.573 155.44C317.667 154.64 316.413 154.24 314.813 154.24C313.4 154.24 312.253 154.573 311.373 155.24C310.493 155.907 310.053 156.733 310.053 157.72C310.053 158.573 310.307 159.28 310.813 159.84C311.347 160.373 312 160.8 312.773 161.12C313.547 161.413 314.587 161.747 315.893 162.12C317.467 162.547 318.72 162.96 319.653 163.36C320.587 163.76 321.387 164.347 322.053 165.12C322.72 165.893 323.067 166.92 323.093 168.2C323.093 169.373 322.773 170.427 322.133 171.36C321.493 172.267 320.6 172.987 319.453 173.52C318.307 174.053 316.987 174.32 315.493 174.32ZM340.164 174L331.164 164.2V174H328.364V144.4H331.164V161.92L339.964 152.16H343.884L333.524 163.04L343.964 174H340.164ZM374.903 146.4V174H372.103V151.96L362.263 174H360.223L350.383 152.04V174H347.583V146.4H350.543L361.223 170.32L371.903 146.4H374.903ZM379.975 163.04C379.975 160.8 380.415 158.84 381.295 157.16C382.201 155.453 383.441 154.147 385.015 153.24C386.615 152.307 388.415 151.84 390.415 151.84C392.495 151.84 394.281 152.32 395.775 153.28C397.295 154.24 398.388 155.467 399.055 156.96V152.16H401.855V174H399.055V169.16C398.361 170.653 397.255 171.893 395.735 172.88C394.241 173.84 392.455 174.32 390.375 174.32C388.401 174.32 386.615 173.853 385.015 172.92C383.441 171.987 382.201 170.667 381.295 168.96C380.415 167.253 379.975 165.28 379.975 163.04ZM399.055 163.08C399.055 161.32 398.695 159.773 397.975 158.44C397.255 157.107 396.268 156.08 395.015 155.36C393.788 154.64 392.428 154.28 390.935 154.28C389.388 154.28 388.001 154.627 386.775 155.32C385.548 156.013 384.575 157.027 383.855 158.36C383.161 159.667 382.815 161.227 382.815 163.04C382.815 164.827 383.161 166.4 383.855 167.76C384.575 169.093 385.548 170.12 386.775 170.84C388.001 171.533 389.388 171.88 390.935 171.88C392.428 171.88 393.788 171.52 395.015 170.8C396.268 170.08 397.255 169.053 397.975 167.72C398.695 166.387 399.055 164.84 399.055 163.08ZM418.487 151.76C421.1 151.76 423.234 152.573 424.887 154.2C426.54 155.8 427.367 158.133 427.367 161.2V174H424.607V161.52C424.607 159.147 424.007 157.333 422.807 156.08C421.634 154.827 420.02 154.2 417.967 154.2C415.86 154.2 414.18 154.867 412.927 156.2C411.674 157.533 411.047 159.493 411.047 162.08V174H408.247V152.16H411.047V155.88C411.74 154.547 412.74 153.533 414.047 152.84C415.354 152.12 416.834 151.76 418.487 151.76Z" fill="black"/>
 <defs>
    <linearGradient id="paint0_linear_0_1" x1="53.5" y1="140" x2="226.5" y2="140" gradientUnits="userSpaceOnUse">
      <stop stop-color="#009EC1"/>
      <stop offset="1" stop-color="#7DC14D"/>
    </linearGradient>
    <linearGradient id="paint1_linear_0_1" x1="53.5" y1="140" x2="226.5" y2="140" gradientUnits="userSpaceOnUse">
      <stop stop-color="#009EC1"/>
      <stop offset="1" stop-color="#7DC14D"/>
    </linearGradient>
    <linearGradient id="paint2_linear_0_1" x1="60.4875" y1="140.5" x2="220.512" y2="140.5" gradientUnits="userSpaceOnUse">
      <stop stop-color="#009EC1"/>
      <stop offset="1" stop-color="#7DC14D"/>
    </linearGradient>
    <linearGradient id="paint3_linear_0_1" x1="55" y1="156.5" x2="229" y2="156.5" gradientUnits="userSpaceOnUse">
      <stop stop-color="#009EC1"/>
      <stop offset="1" stop-color="#7DC14D"/>
    </linearGradient>
  </defs>
</svg>
